<svg width="24" height="24" xmlns="http://www.w3.org/2000/svg"><g fill="#000" fill-rule="nonzero"><path d="M22.08 10.462a2.598 2.598 0 00-2.681-2.58c-1.218.037-2.06.585-2.617 1.944L13.44 17.48l7.254-4.712c.22-.137.402-.274.402-.274a2.635 2.635 0 00.984-2.032zM1.92 10.462a2.598 2.598 0 012.681-2.58c1.218.037 2.06.585 2.617 1.944l3.342 7.654-7.254-4.712c-.22-.137-.402-.274-.402-.274a2.635 2.635 0 01-.984-2.032zM11.52 19.394l-7.166-5.138c-.63-.452-1.169-.616-1.708-.616C1.182 13.64 0 14.9 0 16.462s1.182 2.932 2.646 2.932c.025.014 8.874 0 8.874 0zM12.48 19.394l7.166-5.138c.63-.452 1.169-.616 1.708-.616 1.464 0 2.646 1.26 2.646 2.822s-1.182 2.932-2.646 2.932c-.025.014-8.874 0-8.874 0z"/><path d="M14.898 5c-1.338-.026-2.418 1.273-2.418 2.756v.184c.2 0 .786.013.857.026.14.026.258.092.258.131 0 .053-.188.08-.575.42-.317.289-.317.538-.34.656-.024.105 0 .394 0 .394.387 2.638 1.279 7.913 1.279 7.913s2.957-7.952 3.051-8.267c.2-.722.27-1.076.27-1.43.012-1.497-1.045-2.756-2.382-2.783zM11.52 7.759c0-1.484-1.08-2.785-2.418-2.759-1.326.027-2.382 1.275-2.382 2.772 0 .355.035.683.106.92.152.499 3.25 8.788 3.25 8.788s1.385-8.775 1.432-9.366c.012-.158.012-.25.012-.355z"/></g></svg>